<svg width="140" height="36" viewBox="0 0 140 36" fill="none" xmlns="http://www.w3.org/2000/svg">
<path d="M36.9526 0H30.853V4.38775H36.9526V0Z" fill="#240046"/>
<path d="M44.6479 0.0683594H38.5483V27.577H44.6479V0.0683594Z" fill="#240046"/>
<path d="M63.4333 15.9368C63.4333 11.2989 61.3511 7.43408 54.8102 7.43408C49.9555 7.43408 47.1943 9.196 47.1943 12.106L51.404 12.663C51.8906 12.1742 52.0716 11.6172 53.7351 11.6172C56.7453 11.6172 57.2998 13.1063 57.2998 14.1521V14.4363C50.3629 14.3908 45.791 16.8575 45.791 21.9728C45.791 25.1101 48.1562 28.0201 52.1282 28.0201C54.4594 28.0201 56.4624 27.179 57.7412 25.5989H57.8657L58.2278 27.5768H63.7276C63.5239 26.4856 63.4446 24.6782 63.4446 22.7798V15.9368H63.4333ZM57.5035 20.4041C57.5035 20.7678 57.4583 21.1316 57.379 21.4499C56.983 22.7003 55.7382 23.7006 54.2104 23.7006C52.8411 23.7006 51.8 22.939 51.8 21.3589C51.8 18.9832 54.2897 18.2216 57.4922 18.2557V20.4041H57.5035Z" fill="#240046"/>
<path d="M78.5183 10.219H78.439C77.4319 8.6049 75.757 7.43408 73.0637 7.43408C68.2543 7.43408 64.1577 11.4581 64.1577 17.7896C64.1577 23.4732 67.6092 27.4177 72.464 27.4177C74.7046 27.4177 76.5944 26.4855 77.76 24.8373H77.8393V26.1218C77.8393 29.7479 76.3002 31.112 73.4032 31.112C72.5884 31.112 70.4496 30.7937 70.4496 28.5658L64.9046 27.8155C64.9046 31.4417 65.493 35.9999 72.9053 35.9999C75.791 35.9999 78.7219 35.4316 80.8834 33.5787C83.0901 31.6008 83.8483 28.4975 83.8483 24.7123V13.7088C83.8483 10.7647 83.9275 9.11643 84.0067 7.86603H78.7106L78.5183 10.219ZM77.7487 18.7899C77.7487 19.3128 77.7035 19.9608 77.545 20.4041C77.149 21.8591 75.9041 22.9049 74.3312 22.9049C71.7623 22.9049 70.3252 20.6087 70.3252 17.6646C70.3252 14.0839 72.1245 12.0605 74.3312 12.0605C76.0173 12.0605 77.1829 13.1518 77.6242 14.7546C77.7035 15.0729 77.7487 15.4821 77.7487 15.8799V18.7899Z" fill="#240046"/>
<path d="M99.5212 7.51365C99.0799 7.43408 96.76 7.43408 96.1942 7.43408C94.3043 7.43408 91.9053 8.63901 90.8981 11.5035H90.7397L90.536 7.8774H85.2852C85.3644 9.57112 85.4436 11.4581 85.4436 14.3681V27.5768H91.5431V17.585C91.5431 17.0962 91.5884 16.6188 91.6676 16.2209C92.0637 14.3226 93.5914 13.1177 95.8434 13.1177C96.5224 13.1177 97.0429 13.1973 97.4843 13.2768L99.5212 7.51365Z" fill="#240046"/>
<path d="M107.952 7.43408C101.66 7.43408 97.4844 11.5035 97.4844 17.8692C97.4844 24.2348 101.898 28.0201 107.635 28.0201C112.886 28.0201 117.978 24.7123 117.978 17.5054C117.978 11.5831 113.972 7.43408 107.952 7.43408ZM107.794 23.6324C105.191 23.6324 103.788 21.0975 103.788 17.7101C103.788 14.8114 104.874 11.7877 107.794 11.7877C110.566 11.7877 111.686 14.7659 111.686 17.7101C111.686 21.2566 110.159 23.6324 107.794 23.6324Z" fill="#240046"/>
<path d="M127.699 15.5275C125.289 14.6864 124.53 14.1976 124.53 13.2768C124.53 12.2652 125.368 11.6627 126.862 11.6627C128.548 11.6627 130.234 12.3106 131.117 12.788L132.203 8.55943C131.003 7.95697 128.955 7.43408 126.669 7.43408C121.814 7.43408 118.691 10.2191 118.691 13.8793C118.646 16.2209 120.219 18.4262 124.27 19.8016C126.556 20.5632 127.156 21.052 127.156 22.0523C127.156 23.064 126.398 23.7006 124.553 23.7006C122.754 23.7006 120.423 22.8935 119.302 22.2115L118.216 26.5992C119.698 27.4063 121.984 27.9633 124.553 27.9633C130.166 27.9633 133.052 25.2693 133.052 21.5976C132.995 18.7104 131.433 16.8234 127.699 15.5275Z" fill="#240046"/>
<path d="M36.9526 6.16064H30.853V27.5765H36.9526V6.16064Z" fill="#240046"/>
<path d="M20.657 5.58105C19.9441 5.58105 18.0429 5.63789 16.1644 6.51317C15.5986 6.75188 15.0894 7.07016 14.6254 7.44528C14.1614 7.05879 13.6522 6.75188 13.0863 6.51317C11.2078 5.63789 9.30666 5.58105 8.59372 5.58105C-0.482047 5.58105 0.00456415 14.5725 0.00456415 14.5725V16.755V27.588H2.00757H3.92004H5.92305V16.755C5.92305 16.3231 5.93436 15.9252 5.957 15.5501C6.02489 14.5384 6.18333 13.7086 6.39834 13.0493C6.81705 11.9808 7.59788 11.0714 9.03506 11.0714C11.2757 11.0714 11.9547 13.1516 12.1584 14.6066C12.215 15.1182 12.2376 15.6751 12.2376 16.3117L12.1131 27.588H13.754H14.5348H14.7046H15.4854H17.1263L17.0018 16.3117C17.0018 15.6751 17.0358 15.1182 17.081 14.6066C17.2847 13.1516 17.9637 11.0714 20.2044 11.0714C21.6416 11.0714 22.4224 11.9808 22.8411 13.0493C23.0561 13.7086 23.2145 14.5271 23.2824 15.5501C23.3051 15.9252 23.3277 16.3231 23.3277 16.755V27.588H25.3307H27.2432H29.2462V16.755V14.5725C29.2462 14.5612 29.7328 5.58105 20.657 5.58105Z" fill="#240046"/>
<path d="M137.25 9.8443C135.734 9.8443 134.5 8.60527 134.5 7.08206C134.5 5.55885 135.734 4.31982 137.25 4.31982C138.767 4.31982 140 5.55885 140 7.08206C140 8.60527 138.767 9.8443 137.25 9.8443ZM137.25 5.1951C136.209 5.1951 135.361 6.04764 135.361 7.09343C135.361 8.13921 136.209 8.99175 137.25 8.99175C138.291 8.99175 139.14 8.13921 139.14 7.09343C139.14 6.04764 138.291 5.1951 137.25 5.1951Z" fill="#240046"/>
<path d="M136.345 8.24099V5.58105H137.103C137.397 5.58105 137.601 5.59242 137.714 5.62652C137.827 5.64926 137.929 5.69473 138.019 5.76293C138.11 5.83113 138.189 5.93344 138.234 6.03575C138.291 6.14942 138.313 6.27446 138.313 6.41086C138.313 6.61547 138.268 6.78598 138.166 6.91102C138.064 7.03606 137.917 7.127 137.725 7.17247L138.449 8.24099H137.634L137.024 7.20657V8.24099H136.345ZM137.012 6.84282H137.148C137.306 6.84282 137.42 6.82008 137.487 6.76325C137.555 6.70641 137.589 6.62684 137.589 6.51317C137.589 6.37676 137.555 6.28582 137.487 6.22899C137.42 6.17215 137.306 6.14942 137.148 6.14942H137.001V6.84282H137.012Z" fill="#240046"/>
</svg>
